# xmcd CD database file
#
# Track frame offsets:
#	150
#	16718
#	34212
#	49433
#	68979
#	86310
#	99820
#	115799
#	132952
#	151805
#	167185
#	181973
#	198955
#	216334
#	233522
#	248387
#	264478
#	281035
#	297227
#	312067
#
# Disc length: 4394 seconds
#
# Revision: 1
# Processed by: cddbd v1.5.2PL0 Copyright (c) Steve Scherf et al.
# Submitted via: CDex 1.70beta2
#
DISCID=0a112814
DTITLE=Zabavne - 2
DYEAR=1999
DGENRE=Country
TTITLE0=Dubrovacki trubaduri -La musica di note
TTITLE1=Dado Topic - Bit cemo zajedno
TTITLE2=Miso Kovac - Jos i danas
TTITLE3=Kico Slabinac - Zbog jedne divne crne zene
TTITLE4=Oliver - Majko
TTITLE5=Dado and Sladjana - Princeza
TTITLE6=Zlatko Pejakovic - Kad napuste te svi
TTITLE7=Ljupka Dimitrovska - Nikam sa kajala
TTITLE8=Doris - Neka te imam
TTITLE9=Mladen Grdovic - Odlazim
TTITLE10=Tomislav Ivcic - Sine vrati se
TTITLE11=Milo Hrnic - Nostalgija
TTITLE12=Drazen ZecicGovore mi mnogi ljudi
TTITLE13=Pero Panjkovic - Dobra vecer dobri covjece
TTITLE14=Djani Marsan - Adio
TTITLE15=Nenad Kero - Goodbye My Love Goodbye
TTITLE16=Matko Jelavic - Majko stara
TTITLE17=Tomislav, Vedran and Dario - Zapivamjo nocas u konobi
TTITLE18=Jasmin Stavros - Umoran sam
TTITLE19=Stijene - Singin That RockNRoll
EXTD=YEAR: 1999
EXTT0=
EXTT1=
EXTT2=
EXTT3=
EXTT4=
EXTT5=
EXTT6=
EXTT7=
EXTT8=
EXTT9=
EXTT10=
EXTT11=
EXTT12=
EXTT13=
EXTT14=
EXTT15=
EXTT16=
EXTT17=
EXTT18=
EXTT19=
PLAYORDER=
